<?xml version="1.0" encoding="us-ascii" standalone="no"?><svg xmlns="http://www.w3.org/2000/svg" xmlns:xlink="http://www.w3.org/1999/xlink" contentStyleType="text/css" height="461px" preserveAspectRatio="none" style="width:600px;height:461px;background:#FFFFFF;" version="1.1" viewBox="0 0 600 461" width="600px" zoomAndPan="magnify"><defs/><g><rect fill="#FFFFFF" height="351.7031" style="stroke:#181818;stroke-width:1.0;" width="10" x="53" y="92.6094"/><rect fill="#FFFFFF" height="351.7031" style="stroke:#181818;stroke-width:1.0;" width="10" x="301" y="92.6094"/><rect fill="#FFFFFF" height="351.7031" style="stroke:#181818;stroke-width:1.0;" width="10" x="541" y="92.6094"/><rect fill="none" height="155.5938" style="stroke:#000000;stroke-width:1.5;" width="583.5" x="10" y="281.7188"/><line style="stroke:#181818;stroke-width:0.5;stroke-dasharray:5.0,5.0;" x1="58" x2="58" y1="82.6094" y2="454.3125"/><line style="stroke:#181818;stroke-width:0.5;stroke-dasharray:5.0,5.0;" x1="306" x2="306" y1="82.6094" y2="454.3125"/><line style="stroke:#181818;stroke-width:0.5;stroke-dasharray:5.0,5.0;" x1="545.5" x2="545.5" y1="82.6094" y2="454.3125"/><text fill="#000000" font-family="sans-serif" font-size="14" lengthAdjust="spacing" textLength="70" x="20" y="79.5332">NguoiDung</text><ellipse cx="58" cy="13.5" fill="#E2E2F0" rx="8" ry="8" style="stroke:#181818;stroke-width:0.5;"/><path d="M58,21.5 L58,48.5 M45,29.5 L71,29.5 M58,48.5 L45,63.5 M58,48.5 L71,63.5 " fill="none" style="stroke:#181818;stroke-width:0.5;"/><rect fill="#E2E2F0" height="31.6094" rx="2.5" ry="2.5" style="stroke:#181818;stroke-width:0.5;" width="54" x="279" y="50"/><text fill="#000000" font-family="sans-serif" font-size="14" lengthAdjust="spacing" textLength="40" x="286" y="71.5332">Profile</text><rect fill="#E2E2F0" height="31.6094" rx="2.5" ry="2.5" style="stroke:#181818;stroke-width:0.5;" width="75" x="508.5" y="50"/><text fill="#000000" font-family="sans-serif" font-size="14" lengthAdjust="spacing" textLength="61" x="515.5" y="71.5332">Database</text><rect fill="#FFFFFF" height="351.7031" style="stroke:#181818;stroke-width:1.0;" width="10" x="53" y="92.6094"/><rect fill="#FFFFFF" height="351.7031" style="stroke:#181818;stroke-width:1.0;" width="10" x="301" y="92.6094"/><rect fill="#FFFFFF" height="351.7031" style="stroke:#181818;stroke-width:1.0;" width="10" x="541" y="92.6094"/><polygon fill="#181818" points="289,110.9609,299,114.9609,289,118.9609,293,114.9609" style="stroke:#181818;stroke-width:1.0;"/><line style="stroke:#181818;stroke-width:1.0;" x1="63" x2="295" y1="114.9609" y2="114.9609"/><text fill="#000000" font-family="sans-serif" font-size="13" lengthAdjust="spacing" textLength="214" x="70" y="110.1045">Ng&#432;&#7901;i d&#249;ng truy c&#7853;p v&#224;o trang profile</text><polygon fill="#181818" points="529,141.3125,539,145.3125,529,149.3125,533,145.3125" style="stroke:#181818;stroke-width:1.0;"/><line style="stroke:#181818;stroke-width:1.0;" x1="311" x2="535" y1="145.3125" y2="145.3125"/><text fill="#000000" font-family="sans-serif" font-size="13" lengthAdjust="spacing" textLength="146" x="318" y="140.4561">L&#7845;y th&#244;ng tin ng&#432;&#7901;i d&#249;ng</text><polygon fill="#181818" points="322,171.6641,312,175.6641,322,179.6641,318,175.6641" style="stroke:#181818;stroke-width:1.0;"/><line style="stroke:#181818;stroke-width:1.0;" x1="316" x2="540" y1="175.6641" y2="175.6641"/><text fill="#000000" font-family="sans-serif" font-size="13" lengthAdjust="spacing" textLength="159" x="328" y="170.8076">Tr&#7843; v&#7873; th&#244;ng tin ng&#432;&#7901;i d&#249;ng</text><polygon fill="#181818" points="74,202.0156,64,206.0156,74,210.0156,70,206.0156" style="stroke:#181818;stroke-width:1.0;"/><line style="stroke:#181818;stroke-width:1.0;" x1="68" x2="300" y1="206.0156" y2="206.0156"/><text fill="#000000" font-family="sans-serif" font-size="13" lengthAdjust="spacing" textLength="169" x="80" y="201.1592">Hi&#7875;n th&#7883; th&#244;ng tin ng&#432;&#7901;i d&#249;ng</text><polygon fill="#181818" points="289,232.3672,299,236.3672,289,240.3672,293,236.3672" style="stroke:#181818;stroke-width:1.0;"/><line style="stroke:#181818;stroke-width:1.0;" x1="63" x2="295" y1="236.3672" y2="236.3672"/><text fill="#000000" font-family="sans-serif" font-size="13" lengthAdjust="spacing" textLength="182" x="70" y="231.5107">Nh&#7853;p th&#244;ng tin mu&#7889;n ch&#7881;nh s&#7917;a</text><polygon fill="#181818" points="529,262.7188,539,266.7188,529,270.7188,533,266.7188" style="stroke:#181818;stroke-width:1.0;"/><line style="stroke:#181818;stroke-width:1.0;" x1="311" x2="535" y1="266.7188" y2="266.7188"/><text fill="#000000" font-family="sans-serif" font-size="13" lengthAdjust="spacing" textLength="185" x="318" y="261.8623">Ch&#7881;nh s&#7917;a th&#244;ng tin ng&#432;&#7901;i d&#249;ng</text><path d="M10,281.7188 L71,281.7188 L71,290.0703 L61,300.0703 L10,300.0703 L10,281.7188 " fill="#EEEEEE" style="stroke:#000000;stroke-width:1.5;"/><rect fill="none" height="155.5938" style="stroke:#000000;stroke-width:1.5;" width="583.5" x="10" y="281.7188"/><text fill="#000000" font-family="sans-serif" font-size="13" font-weight="bold" lengthAdjust="spacing" textLength="16" x="25" y="296.2139">alt</text><text fill="#000000" font-family="sans-serif" font-size="11" font-weight="bold" lengthAdjust="spacing" textLength="69" x="86" y="295.1377">[th&#224;nh c&#244;ng]</text><polygon fill="#181818" points="322,318.4219,312,322.4219,322,326.4219,318,322.4219" style="stroke:#181818;stroke-width:1.0;"/><line style="stroke:#181818;stroke-width:1.0;" x1="316" x2="540" y1="322.4219" y2="322.4219"/><text fill="#000000" font-family="sans-serif" font-size="13" lengthAdjust="spacing" textLength="206" x="328" y="317.5654">G&#7917;i th&#244;ng tin ch&#7881;nh s&#7917;a th&#224;nh c&#244;ng</text><polygon fill="#181818" points="74,348.7734,64,352.7734,74,356.7734,70,352.7734" style="stroke:#181818;stroke-width:1.0;"/><line style="stroke:#181818;stroke-width:1.0;" x1="68" x2="300" y1="352.7734" y2="352.7734"/><text fill="#000000" font-family="sans-serif" font-size="13" lengthAdjust="spacing" textLength="190" x="80" y="347.917">Th&#244;ng b&#225;o ch&#7881;nh s&#7917;a th&#224;nh c&#244;ng</text><line style="stroke:#000000;stroke-width:1.0;stroke-dasharray:2.0,2.0;" x1="10" x2="593.5" y1="361.7734" y2="361.7734"/><text fill="#000000" font-family="sans-serif" font-size="11" font-weight="bold" lengthAdjust="spacing" textLength="48" x="15" y="373.1924">[th&#7845;t b&#7841;i]</text><polygon fill="#181818" points="322,394.9609,312,398.9609,322,402.9609,318,398.9609" style="stroke:#181818;stroke-width:1.0;"/><line style="stroke:#181818;stroke-width:1.0;" x1="316" x2="540" y1="398.9609" y2="398.9609"/><text fill="#000000" font-family="sans-serif" font-size="13" lengthAdjust="spacing" textLength="185" x="328" y="394.1045">G&#7917;i th&#244;ng tin ch&#7881;nh s&#7917;a th&#7845;t b&#7841;i</text><polygon fill="#181818" points="74,425.3125,64,429.3125,74,433.3125,70,429.3125" style="stroke:#181818;stroke-width:1.0;"/><line style="stroke:#181818;stroke-width:1.0;" x1="68" x2="300" y1="429.3125" y2="429.3125"/><text fill="#000000" font-family="sans-serif" font-size="13" lengthAdjust="spacing" textLength="169" x="80" y="424.4561">Th&#244;ng b&#225;o ch&#7881;nh s&#7917;a th&#7845;t b&#7841;i</text><!--SRC=[dP8_JiCm5CPtd-9TW0jaOC4I30Wnz0AEupQMWXqbJaH7n5HruW18hL37IWmin6Caxk6Ry9AIO5TjXcRBzxxVz_x8gKm4pBKsiNucX76Z2tXOL5hIIYr8pWeZkSoPCl1OwBdCHA1HPbZCIW6i1DhZicP6U0cZDE2ZWFxH1bVNWo52-EVJsNS9IVkD9LDKI-2ksUTGjnkD_mpL_E06yeTr2JI2UzVibc3IzgiZfG8LXX4Qj9eLhlc0sjcNASPhCKuSmPrqzbKXv-nwYZwtPTglv85FbRDl2ZW6hbGAfRDx5ku74Tm4rQcsB3DTVODcthi8u1VkVuifqa_Xn_57-EbJp0u1SRlLamaYmwU21sjs1cBNREKb8_tJ7NpXLDu8GYLuhKISUBoUE3nVJwBa5m00]--></g></svg>