<?xml version="1.0" encoding="us-ascii" standalone="no"?><svg xmlns="http://www.w3.org/2000/svg" xmlns:xlink="http://www.w3.org/1999/xlink" contentStyleType="text/css" height="339px" preserveAspectRatio="none" style="width:546px;height:339px;background:#FFFFFF;" version="1.1" viewBox="0 0 546 339" width="546px" zoomAndPan="magnify"><defs/><g><rect fill="#FFFFFF" height="230.2969" style="stroke:#181818;stroke-width:1.0;" width="10" x="53" y="92.6094"/><rect fill="#FFFFFF" height="230.2969" style="stroke:#181818;stroke-width:1.0;" width="10" x="236" y="92.6094"/><rect fill="#FFFFFF" height="60.7031" style="stroke:#181818;stroke-width:1.0;" width="10" x="402" y="145.3125"/><rect fill="#FFFFFF" height="55.7031" style="stroke:#181818;stroke-width:1.0;" width="10" x="493" y="206.0156"/><rect fill="none" height="94.8906" style="stroke:#000000;stroke-width:1.5;" width="529" x="10" y="221.0156"/><line style="stroke:#181818;stroke-width:0.5;stroke-dasharray:5.0,5.0;" x1="58" x2="58" y1="82.6094" y2="332.9063"/><line style="stroke:#181818;stroke-width:0.5;stroke-dasharray:5.0,5.0;" x1="240.5" x2="240.5" y1="82.6094" y2="332.9063"/><line style="stroke:#181818;stroke-width:0.5;stroke-dasharray:5.0,5.0;" x1="406.5" x2="406.5" y1="82.6094" y2="332.9063"/><line style="stroke:#181818;stroke-width:0.5;stroke-dasharray:5.0,5.0;" x1="498" x2="498" y1="82.6094" y2="332.9063"/><text fill="#000000" font-family="sans-serif" font-size="14" lengthAdjust="spacing" textLength="70" x="20" y="79.5332">NguoiDung</text><ellipse cx="58" cy="13.5" fill="#E2E2F0" rx="8" ry="8" style="stroke:#181818;stroke-width:0.5;"/><path d="M58,21.5 L58,48.5 M45,29.5 L71,29.5 M58,48.5 L45,63.5 M58,48.5 L71,63.5 " fill="none" style="stroke:#181818;stroke-width:0.5;"/><rect fill="#E2E2F0" height="31.6094" rx="2.5" ry="2.5" style="stroke:#181818;stroke-width:0.5;" width="61" x="210.5" y="50"/><text fill="#000000" font-family="sans-serif" font-size="14" lengthAdjust="spacing" textLength="47" x="217.5" y="71.5332">UILogin</text><rect fill="#E2E2F0" height="31.6094" rx="2.5" ry="2.5" style="stroke:#181818;stroke-width:0.5;" width="75" x="369.5" y="50"/><text fill="#000000" font-family="sans-serif" font-size="14" lengthAdjust="spacing" textLength="61" x="376.5" y="71.5332">Database</text><rect fill="#E2E2F0" height="31.6094" rx="2.5" ry="2.5" style="stroke:#181818;stroke-width:0.5;" width="62" x="467" y="50"/><text fill="#000000" font-family="sans-serif" font-size="14" lengthAdjust="spacing" textLength="48" x="474" y="71.5332">UIHome</text><rect fill="#FFFFFF" height="230.2969" style="stroke:#181818;stroke-width:1.0;" width="10" x="53" y="92.6094"/><rect fill="#FFFFFF" height="230.2969" style="stroke:#181818;stroke-width:1.0;" width="10" x="236" y="92.6094"/><rect fill="#FFFFFF" height="60.7031" style="stroke:#181818;stroke-width:1.0;" width="10" x="402" y="145.3125"/><rect fill="#FFFFFF" height="55.7031" style="stroke:#181818;stroke-width:1.0;" width="10" x="493" y="206.0156"/><polygon fill="#181818" points="224,110.9609,234,114.9609,224,118.9609,228,114.9609" style="stroke:#181818;stroke-width:1.0;"/><line style="stroke:#181818;stroke-width:1.0;" x1="63" x2="230" y1="114.9609" y2="114.9609"/><text fill="#000000" font-family="sans-serif" font-size="13" lengthAdjust="spacing" textLength="149" x="70" y="110.1045">Nh&#7853;p t&#224;i kho&#7843;n, m&#7853;t kh&#7849;u</text><polygon fill="#181818" points="224,141.3125,234,145.3125,224,149.3125,228,145.3125" style="stroke:#181818;stroke-width:1.0;"/><line style="stroke:#181818;stroke-width:1.0;" x1="63" x2="230" y1="145.3125" y2="145.3125"/><text fill="#000000" font-family="sans-serif" font-size="13" lengthAdjust="spacing" textLength="118" x="70" y="140.4561">Nh&#7845;n n&#250;t &#272;&#259;ng nh&#7853;p</text><polygon fill="#181818" points="390,171.6641,400,175.6641,390,179.6641,394,175.6641" style="stroke:#181818;stroke-width:1.0;"/><line style="stroke:#181818;stroke-width:1.0;" x1="246" x2="396" y1="175.6641" y2="175.6641"/><text fill="#000000" font-family="sans-serif" font-size="13" lengthAdjust="spacing" textLength="97" x="253" y="170.8076">Ki&#7875;m tra &#273;&#7847;u v&#224;o</text><polygon fill="#181818" points="257,202.0156,247,206.0156,257,210.0156,253,206.0156" style="stroke:#181818;stroke-width:1.0;"/><line style="stroke:#181818;stroke-width:1.0;" x1="251" x2="406" y1="206.0156" y2="206.0156"/><text fill="#000000" font-family="sans-serif" font-size="13" lengthAdjust="spacing" textLength="132" x="263" y="201.1592">Tr&#7843; v&#7873; k&#7871;t qu&#7843; ki&#7875;m tra</text><path d="M10,221.0156 L71,221.0156 L71,229.3672 L61,239.3672 L10,239.3672 L10,221.0156 " fill="#EEEEEE" style="stroke:#000000;stroke-width:1.5;"/><rect fill="none" height="94.8906" style="stroke:#000000;stroke-width:1.5;" width="529" x="10" y="221.0156"/><text fill="#000000" font-family="sans-serif" font-size="13" font-weight="bold" lengthAdjust="spacing" textLength="16" x="25" y="235.5107">alt</text><text fill="#000000" font-family="sans-serif" font-size="11" font-weight="bold" lengthAdjust="spacing" textLength="98" x="86" y="234.4346">[T&#224;i kho&#7843;n t&#7891;n t&#7841;i]</text><polygon fill="#181818" points="486,257.7188,496,261.7188,486,265.7188,490,261.7188" style="stroke:#181818;stroke-width:1.0;"/><line style="stroke:#181818;stroke-width:1.0;" x1="246" x2="492" y1="261.7188" y2="261.7188"/><text fill="#000000" font-family="sans-serif" font-size="13" lengthAdjust="spacing" textLength="223" x="253" y="256.8623">&#272;&#259;ng nh&#7853;p th&#224;nh c&#244;ng, chuy&#7875;n h&#432;&#7899;ng</text><line style="stroke:#000000;stroke-width:1.0;stroke-dasharray:2.0,2.0;" x1="10" x2="539" y1="270.7188" y2="270.7188"/><text fill="#000000" font-family="sans-serif" font-size="11" font-weight="bold" lengthAdjust="spacing" textLength="136" x="15" y="282.1377">[T&#224;i kho&#7843;n kh&#244;ng t&#7891;n t&#7841;i]</text><polygon fill="#181818" points="74,303.9063,64,307.9063,74,311.9063,70,307.9063" style="stroke:#181818;stroke-width:1.0;"/><line style="stroke:#181818;stroke-width:1.0;" x1="68" x2="235" y1="307.9063" y2="307.9063"/><text fill="#000000" font-family="sans-serif" font-size="13" lengthAdjust="spacing" textLength="109" x="80" y="303.0498">&#272;&#259;ng nh&#7853;p th&#7845;t b&#7841;i</text><!--SRC=[VP8nJiCm68Ltd-8Te5oW0rC64AXJEO2RcjXAQvVqJmKZwWL0Z2n5224690OcPs18nJry4_uKqZWWaS5IdlEUl_yvsamLpfsZYRiKGgRa2eooqfcaj9bOo89CQXRI4iwEJrrcR4zB9Cc9N2h89P9VNn-vkTebcfKa5ONkfJPHxFTmSDYg66AaWtzTWEgDGQvTy8zsW3bhnA_1lvJ_6PyiREq9svljclVjBYlYII14ws1pmhOJ4whr75H8R6-3VowngZTE957u4EE2ER0ArJNou3y85sKZv9rNYAdgZk4ZPuHnD0CeL7VDwX-C03zH8RlI6Yr2-rQPhpSAIDSRgv7MxpOR8DNb5HDOwC-tKDrppKrA1FAJhMPyMpsQN3S9Vw0YWAxblmnSD67Ik22KdVPcR-ytahg_u0i0]--></g></svg>