<?xml version="1.0" encoding="us-ascii" standalone="no"?><svg xmlns="http://www.w3.org/2000/svg" xmlns:xlink="http://www.w3.org/1999/xlink" contentStyleType="text/css" height="370px" preserveAspectRatio="none" style="width:530px;height:370px;background:#FFFFFF;" version="1.1" viewBox="0 0 530 370" width="530px" zoomAndPan="magnify"><defs/><g><rect fill="#FFFFFF" height="261.6484" style="stroke:#181818;stroke-width:1.0;" width="10" x="38" y="92.6094"/><rect fill="#FFFFFF" height="245.6484" style="stroke:#181818;stroke-width:1.0;" width="10" x="221" y="92.6094"/><rect fill="#FFFFFF" height="116.4063" style="stroke:#181818;stroke-width:1.0;" width="10" x="399" y="145.3125"/><rect fill="#FFFFFF" height="30.3516" style="stroke:#181818;stroke-width:1.0;" width="10" x="477.5" y="261.7188"/><rect fill="none" height="125.2422" style="stroke:#000000;stroke-width:1.5;" width="513.5" x="10" y="221.0156"/><line style="stroke:#181818;stroke-width:0.5;stroke-dasharray:5.0,5.0;" x1="43" x2="43" y1="82.6094" y2="363.2578"/><line style="stroke:#181818;stroke-width:0.5;stroke-dasharray:5.0,5.0;" x1="225.5" x2="225.5" y1="82.6094" y2="363.2578"/><line style="stroke:#181818;stroke-width:0.5;stroke-dasharray:5.0,5.0;" x1="403.5" x2="403.5" y1="82.6094" y2="363.2578"/><line style="stroke:#181818;stroke-width:0.5;stroke-dasharray:5.0,5.0;" x1="482.5" x2="482.5" y1="82.6094" y2="363.2578"/><text fill="#000000" font-family="sans-serif" font-size="14" lengthAdjust="spacing" textLength="40" x="20" y="79.5332">Khach</text><ellipse cx="43" cy="13.5" fill="#E2E2F0" rx="8" ry="8" style="stroke:#181818;stroke-width:0.5;"/><path d="M43,21.5 L43,48.5 M30,29.5 L56,29.5 M43,48.5 L30,63.5 M43,48.5 L56,63.5 " fill="none" style="stroke:#181818;stroke-width:0.5;"/><rect fill="#E2E2F0" height="31.6094" rx="2.5" ry="2.5" style="stroke:#181818;stroke-width:0.5;" width="97" x="177.5" y="50"/><text fill="#000000" font-family="sans-serif" font-size="14" lengthAdjust="spacing" textLength="83" x="184.5" y="71.5332">UIRegistation</text><rect fill="#E2E2F0" height="31.6094" rx="2.5" ry="2.5" style="stroke:#181818;stroke-width:0.5;" width="75" x="366.5" y="50"/><text fill="#000000" font-family="sans-serif" font-size="14" lengthAdjust="spacing" textLength="61" x="373.5" y="71.5332">Database</text><rect fill="#E2E2F0" height="31.6094" rx="2.5" ry="2.5" style="stroke:#181818;stroke-width:0.5;" width="62" x="451.5" y="50"/><text fill="#000000" font-family="sans-serif" font-size="14" lengthAdjust="spacing" textLength="48" x="458.5" y="71.5332">UIHome</text><rect fill="#FFFFFF" height="261.6484" style="stroke:#181818;stroke-width:1.0;" width="10" x="38" y="92.6094"/><rect fill="#FFFFFF" height="245.6484" style="stroke:#181818;stroke-width:1.0;" width="10" x="221" y="92.6094"/><rect fill="#FFFFFF" height="116.4063" style="stroke:#181818;stroke-width:1.0;" width="10" x="399" y="145.3125"/><rect fill="#FFFFFF" height="30.3516" style="stroke:#181818;stroke-width:1.0;" width="10" x="477.5" y="261.7188"/><polygon fill="#181818" points="209,110.9609,219,114.9609,209,118.9609,213,114.9609" style="stroke:#181818;stroke-width:1.0;"/><line style="stroke:#181818;stroke-width:1.0;" x1="48" x2="215" y1="114.9609" y2="114.9609"/><text fill="#000000" font-family="sans-serif" font-size="13" lengthAdjust="spacing" textLength="149" x="55" y="110.1045">Nh&#7853;p m&#7853;t kh&#7849;u, t&#224;i kho&#7843;n</text><polygon fill="#181818" points="209,141.3125,219,145.3125,209,149.3125,213,145.3125" style="stroke:#181818;stroke-width:1.0;"/><line style="stroke:#181818;stroke-width:1.0;" x1="48" x2="215" y1="145.3125" y2="145.3125"/><text fill="#000000" font-family="sans-serif" font-size="13" lengthAdjust="spacing" textLength="104" x="55" y="140.4561">Nh&#7845;n n&#250;t &#272;&#259;ng k&#253;</text><polygon fill="#181818" points="387,171.6641,397,175.6641,387,179.6641,391,175.6641" style="stroke:#181818;stroke-width:1.0;"/><line style="stroke:#181818;stroke-width:1.0;" x1="231" x2="393" y1="175.6641" y2="175.6641"/><text fill="#000000" font-family="sans-serif" font-size="13" lengthAdjust="spacing" textLength="144" x="238" y="170.8076">Ki&#7875;m tra k&#7871;t qu&#7843; &#273;&#7847;u v&#224;o</text><polygon fill="#181818" points="242,202.0156,232,206.0156,242,210.0156,238,206.0156" style="stroke:#181818;stroke-width:1.0;"/><line style="stroke:#181818;stroke-width:1.0;" x1="236" x2="398" y1="206.0156" y2="206.0156"/><text fill="#000000" font-family="sans-serif" font-size="13" lengthAdjust="spacing" textLength="132" x="248" y="201.1592">Tr&#7843; v&#7873; k&#7871;t qu&#7843; ki&#7875;m tra</text><path d="M10,221.0156 L71,221.0156 L71,229.3672 L61,239.3672 L10,239.3672 L10,221.0156 " fill="#EEEEEE" style="stroke:#000000;stroke-width:1.5;"/><rect fill="none" height="125.2422" style="stroke:#000000;stroke-width:1.5;" width="513.5" x="10" y="221.0156"/><text fill="#000000" font-family="sans-serif" font-size="13" font-weight="bold" lengthAdjust="spacing" textLength="16" x="25" y="235.5107">alt</text><text fill="#000000" font-family="sans-serif" font-size="11" font-weight="bold" lengthAdjust="spacing" textLength="128" x="86" y="234.4346">[T&#224;i kho&#7843;n ch&#432;a t&#7891;n t&#7841;i]</text><polygon fill="#181818" points="392,257.7188,402,261.7188,392,265.7188,396,261.7188" style="stroke:#181818;stroke-width:1.0;"/><line style="stroke:#181818;stroke-width:1.0;" x1="231" x2="398" y1="261.7188" y2="261.7188"/><text fill="#000000" font-family="sans-serif" font-size="13" lengthAdjust="spacing" textLength="77" x="238" y="256.8623">T&#7841;o user m&#7899;i</text><polygon fill="#181818" points="470.5,288.0703,480.5,292.0703,470.5,296.0703,474.5,292.0703" style="stroke:#181818;stroke-width:1.0;"/><line style="stroke:#181818;stroke-width:1.0;" x1="231" x2="476.5" y1="292.0703" y2="292.0703"/><text fill="#000000" font-family="sans-serif" font-size="13" lengthAdjust="spacing" textLength="87" x="238" y="287.2139">Chuy&#7875;n h&#432;&#7899;ng</text><line style="stroke:#000000;stroke-width:1.0;stroke-dasharray:2.0,2.0;" x1="10" x2="523.5" y1="301.0703" y2="301.0703"/><text fill="#000000" font-family="sans-serif" font-size="11" font-weight="bold" lengthAdjust="spacing" textLength="98" x="15" y="312.4893">[T&#224;i kho&#7843;n t&#7891;n t&#7841;i]</text><polygon fill="#181818" points="59,334.2578,49,338.2578,59,342.2578,55,338.2578" style="stroke:#181818;stroke-width:1.0;"/><line style="stroke:#181818;stroke-width:1.0;" x1="53" x2="225" y1="338.2578" y2="338.2578"/><text fill="#000000" font-family="sans-serif" font-size="13" lengthAdjust="spacing" textLength="77" x="65" y="333.4014">Th&#244;ng b&#225;o l&#7895;i</text><!--SRC=[XP4_JiCm58Ttd-9t0BW00miPG4WCg1pWDJMrbTOkoKi58-e5G0mCB4K88GOa1gP4Y24Lz_1DUFsZ4bULci7Iy_FlyvTdOtiQbzvprryhHIdx7AU6KgD6bBDDxOWSu-BaNFTjmSJMkwYJ45EN2Wqga6naZlrGBvXsJAnNs7KPCnTDx1_6spZ0cGdLnmX3MHcP5E_b7hYPMYbyg5vsH5yTN5CnPdUpYUiZQxxnhv2eE2ACH7AdDjIJ8JWdPA7wOLoLSX5czw5wAp5kfbubs-xhvFDZur3VHhbiZLCqO7HQxaZDxoU1G_tWPAsUhO9yMwqwqlOe2vtBCEgdvScURltCVACrtiNuj-AMFM4UcV96v1n4GvWo86nYLnmza3UEr7TABzz5n4tp9UHk8_g3K3zQ5U7RAQLTJwa_]--></g></svg>