<?xml version="1.0" encoding="us-ascii" standalone="no"?><svg xmlns="http://www.w3.org/2000/svg" xmlns:xlink="http://www.w3.org/1999/xlink" contentStyleType="text/css" height="430px" preserveAspectRatio="none" style="width:491px;height:430px;background:#FFFFFF;" version="1.1" viewBox="0 0 491 430" width="491px" zoomAndPan="magnify"><defs/><g><rect fill="#FFFFFF" height="321.3516" style="stroke:#181818;stroke-width:1.0;" width="10" x="43" y="92.6094"/><rect fill="#FFFFFF" height="321.3516" style="stroke:#181818;stroke-width:1.0;" width="10" x="244" y="92.6094"/><rect fill="#FFFFFF" height="321.3516" style="stroke:#181818;stroke-width:1.0;" width="10" x="432" y="92.6094"/><rect fill="none" height="155.5938" style="stroke:#000000;stroke-width:1.5;" width="474.5" x="10" y="251.3672"/><line style="stroke:#181818;stroke-width:0.5;stroke-dasharray:5.0,5.0;" x1="48" x2="48" y1="82.6094" y2="423.9609"/><line style="stroke:#181818;stroke-width:0.5;stroke-dasharray:5.0,5.0;" x1="248.5" x2="248.5" y1="82.6094" y2="423.9609"/><line style="stroke:#181818;stroke-width:0.5;stroke-dasharray:5.0,5.0;" x1="436.5" x2="436.5" y1="82.6094" y2="423.9609"/><text fill="#000000" font-family="sans-serif" font-size="14" lengthAdjust="spacing" textLength="50" x="20" y="79.5332">QuanLy</text><ellipse cx="48" cy="13.5" fill="#E2E2F0" rx="8" ry="8" style="stroke:#181818;stroke-width:0.5;"/><path d="M48,21.5 L48,48.5 M35,29.5 L61,29.5 M48,48.5 L35,63.5 M48,48.5 L61,63.5 " fill="none" style="stroke:#181818;stroke-width:0.5;"/><rect fill="#E2E2F0" height="31.6094" rx="2.5" ry="2.5" style="stroke:#181818;stroke-width:0.5;" width="51" x="223.5" y="50"/><text fill="#000000" font-family="sans-serif" font-size="14" lengthAdjust="spacing" textLength="37" x="230.5" y="71.5332">Order</text><rect fill="#E2E2F0" height="31.6094" rx="2.5" ry="2.5" style="stroke:#181818;stroke-width:0.5;" width="75" x="399.5" y="50"/><text fill="#000000" font-family="sans-serif" font-size="14" lengthAdjust="spacing" textLength="61" x="406.5" y="71.5332">Database</text><rect fill="#FFFFFF" height="321.3516" style="stroke:#181818;stroke-width:1.0;" width="10" x="43" y="92.6094"/><rect fill="#FFFFFF" height="321.3516" style="stroke:#181818;stroke-width:1.0;" width="10" x="244" y="92.6094"/><rect fill="#FFFFFF" height="321.3516" style="stroke:#181818;stroke-width:1.0;" width="10" x="432" y="92.6094"/><polygon fill="#181818" points="420,110.9609,430,114.9609,420,118.9609,424,114.9609" style="stroke:#181818;stroke-width:1.0;"/><line style="stroke:#181818;stroke-width:1.0;" x1="254" x2="426" y1="114.9609" y2="114.9609"/><text fill="#000000" font-family="sans-serif" font-size="13" lengthAdjust="spacing" textLength="140" x="261" y="110.1045">L&#7845;y d&#7919; li&#7879;u v&#7873; &#273;&#417;n h&#224;ng</text><polygon fill="#181818" points="265,141.3125,255,145.3125,265,149.3125,261,145.3125" style="stroke:#181818;stroke-width:1.0;"/><line style="stroke:#181818;stroke-width:1.0;" x1="259" x2="431" y1="145.3125" y2="145.3125"/><text fill="#000000" font-family="sans-serif" font-size="13" lengthAdjust="spacing" textLength="117" x="271" y="140.4561">D&#7919; li&#7879;u v&#7873; &#273;&#417;n h&#224;ng</text><polygon fill="#181818" points="64,171.6641,54,175.6641,64,179.6641,60,175.6641" style="stroke:#181818;stroke-width:1.0;"/><line style="stroke:#181818;stroke-width:1.0;" x1="58" x2="243" y1="175.6641" y2="175.6641"/><text fill="#000000" font-family="sans-serif" font-size="13" lengthAdjust="spacing" textLength="167" x="70" y="170.8076">Hi&#7875;n th&#7883; danh s&#225;ch &#273;&#417;n h&#224;ng</text><polygon fill="#181818" points="232,202.0156,242,206.0156,232,210.0156,236,206.0156" style="stroke:#181818;stroke-width:1.0;"/><line style="stroke:#181818;stroke-width:1.0;" x1="53" x2="238" y1="206.0156" y2="206.0156"/><text fill="#000000" font-family="sans-serif" font-size="13" lengthAdjust="spacing" textLength="126" x="60" y="201.1592">X&#225;c nh&#7853;n &#273;&#227; g&#7917;i h&#224;ng</text><polygon fill="#181818" points="420,232.3672,430,236.3672,420,240.3672,424,236.3672" style="stroke:#181818;stroke-width:1.0;"/><line style="stroke:#181818;stroke-width:1.0;" x1="254" x2="426" y1="236.3672" y2="236.3672"/><text fill="#000000" font-family="sans-serif" font-size="13" lengthAdjust="spacing" textLength="154" x="261" y="231.5107">G&#7917;i x&#225;c nh&#7853;n v&#7873; &#273;&#417;n h&#224;ng</text><path d="M10,251.3672 L71,251.3672 L71,259.7188 L61,269.7188 L10,269.7188 L10,251.3672 " fill="#EEEEEE" style="stroke:#000000;stroke-width:1.5;"/><rect fill="none" height="155.5938" style="stroke:#000000;stroke-width:1.5;" width="474.5" x="10" y="251.3672"/><text fill="#000000" font-family="sans-serif" font-size="13" font-weight="bold" lengthAdjust="spacing" textLength="16" x="25" y="265.8623">alt</text><text fill="#000000" font-family="sans-serif" font-size="11" font-weight="bold" lengthAdjust="spacing" textLength="69" x="86" y="264.7861">[th&#224;nh c&#244;ng]</text><polygon fill="#181818" points="265,288.0703,255,292.0703,265,296.0703,261,292.0703" style="stroke:#181818;stroke-width:1.0;"/><line style="stroke:#181818;stroke-width:1.0;" x1="259" x2="431" y1="292.0703" y2="292.0703"/><text fill="#000000" font-family="sans-serif" font-size="13" lengthAdjust="spacing" textLength="121" x="271" y="287.2139">X&#225;c nh&#7853;n th&#224;nh c&#244;ng</text><polygon fill="#181818" points="64,318.4219,54,322.4219,64,326.4219,60,322.4219" style="stroke:#181818;stroke-width:1.0;"/><line style="stroke:#181818;stroke-width:1.0;" x1="58" x2="243" y1="322.4219" y2="322.4219"/><text fill="#000000" font-family="sans-serif" font-size="13" lengthAdjust="spacing" textLength="121" x="70" y="317.5654">X&#225;c nh&#7853;n th&#224;nh c&#244;ng</text><line style="stroke:#000000;stroke-width:1.0;stroke-dasharray:2.0,2.0;" x1="10" x2="484.5" y1="331.4219" y2="331.4219"/><text fill="#000000" font-family="sans-serif" font-size="11" font-weight="bold" lengthAdjust="spacing" textLength="48" x="15" y="342.8408">[th&#7845;t b&#7841;i]</text><polygon fill="#181818" points="265,364.6094,255,368.6094,265,372.6094,261,368.6094" style="stroke:#181818;stroke-width:1.0;"/><line style="stroke:#181818;stroke-width:1.0;" x1="259" x2="431" y1="368.6094" y2="368.6094"/><text fill="#000000" font-family="sans-serif" font-size="13" lengthAdjust="spacing" textLength="100" x="271" y="363.7529">X&#225;c nh&#7853;n th&#7845;t b&#7841;i</text><polygon fill="#181818" points="64,394.9609,54,398.9609,64,402.9609,60,398.9609" style="stroke:#181818;stroke-width:1.0;"/><line style="stroke:#181818;stroke-width:1.0;" x1="58" x2="243" y1="398.9609" y2="398.9609"/><text fill="#000000" font-family="sans-serif" font-size="13" lengthAdjust="spacing" textLength="100" x="70" y="394.1045">X&#225;c nh&#7853;n th&#7845;t b&#7841;i</text><!--SRC=[XPAnJiCm48PtFyN_0hn01oPBC5H2RAoNsDIM8gTAtAeT4GC34sz0X3fMB4p96CHx-4su9gKuZTfwkz_Vx_zEFcELncEU-oHV2K6fpmlSByXDrs9EXRUfdPFpk2kKBWQA94y9bHfKGgApsYLv_US-rBtrK4eXEWLNr-oRO1hgpHegD9_8R6XU5bY6vWdVRp-LWsdVtKp87TkR9f1dIFm_tNV1_2sZpmxUXEOLYfn1sLQf6GI8FHt5F304PqAzTOos7vY5Pclt_620c-vY5V7ZjWHbdblWmY1jltOI-CXJYMDqFDXfNcVyBJnmlV58GbtPYsd7wAMqcDTEyO1A7oz0fFJFnGflp2y0]--></g></svg>