<?xml version="1.0" encoding="us-ascii" standalone="no"?><svg xmlns="http://www.w3.org/2000/svg" xmlns:xlink="http://www.w3.org/1999/xlink" contentStyleType="text/css" height="461px" preserveAspectRatio="none" style="width:745px;height:461px;background:#FFFFFF;" version="1.1" viewBox="0 0 745 461" width="745px" zoomAndPan="magnify"><defs/><g><rect fill="#FFFFFF" height="343.7031" style="stroke:#181818;stroke-width:1.0;" width="10" x="53" y="92.6094"/><rect fill="#FFFFFF" height="343.7031" style="stroke:#181818;stroke-width:1.0;" width="10" x="293" y="92.6094"/><rect fill="#FFFFFF" height="321.3516" style="stroke:#181818;stroke-width:1.0;" width="10" x="524" y="114.9609"/><rect fill="#FFFFFF" height="230.2969" style="stroke:#181818;stroke-width:1.0;" width="10" x="686" y="206.0156"/><rect fill="none" height="155.5938" style="stroke:#000000;stroke-width:1.5;" width="728.5" x="10" y="251.3672"/><line style="stroke:#181818;stroke-width:0.5;stroke-dasharray:5.0,5.0;" x1="58" x2="58" y1="82.6094" y2="454.3125"/><line style="stroke:#181818;stroke-width:0.5;stroke-dasharray:5.0,5.0;" x1="297.5" x2="297.5" y1="82.6094" y2="454.3125"/><line style="stroke:#181818;stroke-width:0.5;stroke-dasharray:5.0,5.0;" x1="528.5" x2="528.5" y1="82.6094" y2="454.3125"/><line style="stroke:#181818;stroke-width:0.5;stroke-dasharray:5.0,5.0;" x1="690.5" x2="690.5" y1="82.6094" y2="454.3125"/><text fill="#000000" font-family="sans-serif" font-size="14" lengthAdjust="spacing" textLength="70" x="20" y="79.5332">NguoiDung</text><ellipse cx="58" cy="13.5" fill="#E2E2F0" rx="8" ry="8" style="stroke:#181818;stroke-width:0.5;"/><path d="M58,21.5 L58,48.5 M45,29.5 L71,29.5 M58,48.5 L45,63.5 M58,48.5 L71,63.5 " fill="none" style="stroke:#181818;stroke-width:0.5;"/><rect fill="#E2E2F0" height="31.6094" rx="2.5" ry="2.5" style="stroke:#181818;stroke-width:0.5;" width="63" x="266.5" y="50"/><text fill="#000000" font-family="sans-serif" font-size="14" lengthAdjust="spacing" textLength="49" x="273.5" y="71.5332">Product</text><rect fill="#E2E2F0" height="31.6094" rx="2.5" ry="2.5" style="stroke:#181818;stroke-width:0.5;" width="99" x="479.5" y="50"/><text fill="#000000" font-family="sans-serif" font-size="14" lengthAdjust="spacing" textLength="85" x="486.5" y="71.5332">DetailProduct</text><rect fill="#E2E2F0" height="31.6094" rx="2.5" ry="2.5" style="stroke:#181818;stroke-width:0.5;" width="75" x="653.5" y="50"/><text fill="#000000" font-family="sans-serif" font-size="14" lengthAdjust="spacing" textLength="61" x="660.5" y="71.5332">Database</text><rect fill="#FFFFFF" height="343.7031" style="stroke:#181818;stroke-width:1.0;" width="10" x="53" y="92.6094"/><rect fill="#FFFFFF" height="343.7031" style="stroke:#181818;stroke-width:1.0;" width="10" x="293" y="92.6094"/><rect fill="#FFFFFF" height="321.3516" style="stroke:#181818;stroke-width:1.0;" width="10" x="524" y="114.9609"/><rect fill="#FFFFFF" height="230.2969" style="stroke:#181818;stroke-width:1.0;" width="10" x="686" y="206.0156"/><polygon fill="#181818" points="281,110.9609,291,114.9609,281,118.9609,285,114.9609" style="stroke:#181818;stroke-width:1.0;"/><line style="stroke:#181818;stroke-width:1.0;" x1="63" x2="287" y1="114.9609" y2="114.9609"/><text fill="#000000" font-family="sans-serif" font-size="13" lengthAdjust="spacing" textLength="189" x="70" y="110.1045">Ch&#7885;n s&#7843;n ph&#7849;m mu&#7889;n ch&#7881;nh s&#7917;a</text><polygon fill="#181818" points="512,141.3125,522,145.3125,512,149.3125,516,145.3125" style="stroke:#181818;stroke-width:1.0;"/><line style="stroke:#181818;stroke-width:1.0;" x1="303" x2="518" y1="145.3125" y2="145.3125"/><text fill="#000000" font-family="sans-serif" font-size="13" lengthAdjust="spacing" textLength="157" x="310" y="140.4561">M&#7903; trang chi ti&#7871;t s&#7843;n ph&#7849;m</text><polygon fill="#181818" points="512,171.6641,522,175.6641,512,179.6641,516,175.6641" style="stroke:#181818;stroke-width:1.0;"/><line style="stroke:#181818;stroke-width:1.0;" x1="63" x2="518" y1="175.6641" y2="175.6641"/><text fill="#000000" font-family="sans-serif" font-size="13" lengthAdjust="spacing" textLength="178" x="70" y="170.8076">&#272;i&#7873;n th&#244;ng tin mu&#7889;n ch&#7881;nh s&#7917;a</text><polygon fill="#181818" points="512,202.0156,522,206.0156,512,210.0156,516,206.0156" style="stroke:#181818;stroke-width:1.0;"/><line style="stroke:#181818;stroke-width:1.0;" x1="63" x2="518" y1="206.0156" y2="206.0156"/><text fill="#000000" font-family="sans-serif" font-size="13" lengthAdjust="spacing" textLength="87" x="70" y="201.1592">Ch&#7885;n x&#225;c nh&#7853;n</text><polygon fill="#181818" points="674,232.3672,684,236.3672,674,240.3672,678,236.3672" style="stroke:#181818;stroke-width:1.0;"/><line style="stroke:#181818;stroke-width:1.0;" x1="534" x2="680" y1="236.3672" y2="236.3672"/><text fill="#000000" font-family="sans-serif" font-size="13" lengthAdjust="spacing" textLength="86" x="541" y="231.5107">S&#7917;a s&#7843;n ph&#7849;m</text><path d="M10,251.3672 L71,251.3672 L71,259.7188 L61,269.7188 L10,269.7188 L10,251.3672 " fill="#EEEEEE" style="stroke:#000000;stroke-width:1.5;"/><rect fill="none" height="155.5938" style="stroke:#000000;stroke-width:1.5;" width="728.5" x="10" y="251.3672"/><text fill="#000000" font-family="sans-serif" font-size="13" font-weight="bold" lengthAdjust="spacing" textLength="16" x="25" y="265.8623">alt</text><text fill="#000000" font-family="sans-serif" font-size="11" font-weight="bold" lengthAdjust="spacing" textLength="69" x="86" y="264.7861">[th&#224;nh c&#244;ng]</text><polygon fill="#181818" points="545,288.0703,535,292.0703,545,296.0703,541,292.0703" style="stroke:#181818;stroke-width:1.0;"/><line style="stroke:#181818;stroke-width:1.0;" x1="539" x2="685" y1="292.0703" y2="292.0703"/><text fill="#000000" font-family="sans-serif" font-size="13" lengthAdjust="spacing" textLength="128" x="551" y="287.2139">Th&#244;ng b&#225;o th&#224;nh c&#244;ng</text><polygon fill="#181818" points="314,318.4219,304,322.4219,314,326.4219,310,322.4219" style="stroke:#181818;stroke-width:1.0;"/><line style="stroke:#181818;stroke-width:1.0;" x1="308" x2="523" y1="322.4219" y2="322.4219"/><text fill="#000000" font-family="sans-serif" font-size="13" lengthAdjust="spacing" textLength="197" x="320" y="317.5654">Chuy&#7875;n h&#432;&#7899;ng v&#7873; trang s&#7843;n ph&#7849;m</text><line style="stroke:#000000;stroke-width:1.0;stroke-dasharray:2.0,2.0;" x1="10" x2="738.5" y1="331.4219" y2="331.4219"/><text fill="#000000" font-family="sans-serif" font-size="11" font-weight="bold" lengthAdjust="spacing" textLength="48" x="15" y="342.8408">[th&#7845;t b&#7841;i]</text><polygon fill="#181818" points="545,364.6094,535,368.6094,545,372.6094,541,368.6094" style="stroke:#181818;stroke-width:1.0;"/><line style="stroke:#181818;stroke-width:1.0;" x1="539" x2="685" y1="368.6094" y2="368.6094"/><text fill="#000000" font-family="sans-serif" font-size="13" lengthAdjust="spacing" textLength="107" x="551" y="363.7529">Th&#244;ng b&#225;o th&#7845;t b&#7841;i</text><polygon fill="#181818" points="74,394.9609,64,398.9609,74,402.9609,70,398.9609" style="stroke:#181818;stroke-width:1.0;"/><line style="stroke:#181818;stroke-width:1.0;" x1="68" x2="523" y1="398.9609" y2="398.9609"/><text fill="#000000" font-family="sans-serif" font-size="13" lengthAdjust="spacing" textLength="107" x="80" y="394.1045">Th&#244;ng b&#225;o th&#7845;t b&#7841;i</text><polygon fill="#181818" points="69,432.3125,59,436.3125,69,440.3125,65,436.3125" style="stroke:#181818;stroke-width:1.0;"/><line style="stroke:#181818;stroke-width:1.0;" x1="63" x2="297" y1="436.3125" y2="436.3125"/><text fill="#000000" font-family="sans-serif" font-size="13" lengthAdjust="spacing" textLength="206" x="75" y="431.4561">Hi&#7875;n th&#7883; danh s&#225;ch t&#7845;t c&#7843; s&#7843;n ph&#7849;m</text><!--SRC=[ZLAzJiCm4Dxz5FS2l4075ZAmW93W1IwEgIsrTfLUgZ8Y9eIGO6Q02Z4mL69WYWU68jx3Ry8rRO9THK0MH_VTztDdQrCeE7UESZSN0YMv4ew7bJDPPOTYWYKPQIPe2KvALrIIabgc2Cse5q727ASAS0fP8sncI2hIxaejNNGOxEstrG4SwE1lBKn3_MnXeaFzEePn5Voz1SdGjTMC-IL69ccixRaMJO0170N_25GYEqfjW4oeFoXrWZJLZi3ddGd-qWBfrJitaB6zqVvGsKuuNoqaMBPTMeY70P7qDm83E6s4Tx8A7D4wp1CxooQI0Fwo7jEpJUHyjN09OqFODOooLXV1NrdGNs_1Fx32Z3UmNMASHgWHtpxn_mj17kg5-M-M7qP_bcwLln2LBNWR_QH3qmp0_Vu62bnV4czU0pLyoJEaWuX2zJpVgDW-jAYKli0O0F4D]--></g></svg>