<?xml version="1.0" encoding="us-ascii" standalone="no"?><svg xmlns="http://www.w3.org/2000/svg" xmlns:xlink="http://www.w3.org/1999/xlink" contentStyleType="text/css" height="386px" preserveAspectRatio="none" style="width:545px;height:386px;background:#FFFFFF;" version="1.1" viewBox="0 0 545 386" width="545px" zoomAndPan="magnify"><defs/><g><rect fill="#FFFFFF" height="277" style="stroke:#181818;stroke-width:1.0;" width="10" x="53" y="92.6094"/><rect fill="#FFFFFF" height="277" style="stroke:#181818;stroke-width:1.0;" width="10" x="260" y="92.6094"/><rect fill="#FFFFFF" height="207.9453" style="stroke:#181818;stroke-width:1.0;" width="10" x="486" y="161.6641"/><rect fill="none" height="155.5938" style="stroke:#000000;stroke-width:1.5;" width="528.5" x="10" y="207.0156"/><line style="stroke:#181818;stroke-width:0.5;stroke-dasharray:5.0,5.0;" x1="58" x2="58" y1="82.6094" y2="379.6094"/><line style="stroke:#181818;stroke-width:0.5;stroke-dasharray:5.0,5.0;" x1="264.5" x2="264.5" y1="82.6094" y2="379.6094"/><line style="stroke:#181818;stroke-width:0.5;stroke-dasharray:5.0,5.0;" x1="490.5" x2="490.5" y1="82.6094" y2="379.6094"/><text fill="#000000" font-family="sans-serif" font-size="14" lengthAdjust="spacing" textLength="70" x="20" y="79.5332">NguoiDung</text><ellipse cx="58" cy="13.5" fill="#E2E2F0" rx="8" ry="8" style="stroke:#181818;stroke-width:0.5;"/><path d="M58,21.5 L58,48.5 M45,29.5 L71,29.5 M58,48.5 L45,63.5 M58,48.5 L71,63.5 " fill="none" style="stroke:#181818;stroke-width:0.5;"/><rect fill="#E2E2F0" height="31.6094" rx="2.5" ry="2.5" style="stroke:#181818;stroke-width:0.5;" width="111" x="209.5" y="50"/><text fill="#000000" font-family="sans-serif" font-size="14" lengthAdjust="spacing" textLength="97" x="216.5" y="71.5332">UIDetailProduct</text><rect fill="#E2E2F0" height="31.6094" rx="2.5" ry="2.5" style="stroke:#181818;stroke-width:0.5;" width="75" x="453.5" y="50"/><text fill="#000000" font-family="sans-serif" font-size="14" lengthAdjust="spacing" textLength="61" x="460.5" y="71.5332">Database</text><rect fill="#FFFFFF" height="277" style="stroke:#181818;stroke-width:1.0;" width="10" x="53" y="92.6094"/><rect fill="#FFFFFF" height="277" style="stroke:#181818;stroke-width:1.0;" width="10" x="260" y="92.6094"/><rect fill="#FFFFFF" height="207.9453" style="stroke:#181818;stroke-width:1.0;" width="10" x="486" y="161.6641"/><polygon fill="#181818" points="248,127.3125,258,131.3125,248,135.3125,252,131.3125" style="stroke:#181818;stroke-width:1.0;"/><line style="stroke:#181818;stroke-width:1.0;" x1="63" x2="254" y1="131.3125" y2="131.3125"/><text fill="#000000" font-family="sans-serif" font-size="13" lengthAdjust="spacing" textLength="160" x="70" y="110.1045">Ch&#7885;n k&#237;ch th&#432;&#7899;c, m&#224;u s&#7855;c,</text><text fill="#000000" font-family="sans-serif" font-size="13" lengthAdjust="spacing" textLength="80" x="70" y="126.4561">v&#224; k&#237;ch th&#432;&#7899;c</text><polygon fill="#181818" points="248,157.6641,258,161.6641,248,165.6641,252,161.6641" style="stroke:#181818;stroke-width:1.0;"/><line style="stroke:#181818;stroke-width:1.0;" x1="63" x2="254" y1="161.6641" y2="161.6641"/><text fill="#000000" font-family="sans-serif" font-size="13" lengthAdjust="spacing" textLength="139" x="70" y="156.8076">Ch&#7885;n th&#234;m v&#224;o gi&#7887; h&#224;ng</text><polygon fill="#181818" points="474,188.0156,484,192.0156,474,196.0156,478,192.0156" style="stroke:#181818;stroke-width:1.0;"/><line style="stroke:#181818;stroke-width:1.0;" x1="270" x2="480" y1="192.0156" y2="192.0156"/><text fill="#000000" font-family="sans-serif" font-size="13" lengthAdjust="spacing" textLength="192" x="277" y="187.1592">t&#7841;o s&#7843;n ph&#7849;m trong gi&#7887; h&#224;ng m&#7899;i</text><path d="M10,207.0156 L71,207.0156 L71,215.3672 L61,225.3672 L10,225.3672 L10,207.0156 " fill="#EEEEEE" style="stroke:#000000;stroke-width:1.5;"/><rect fill="none" height="155.5938" style="stroke:#000000;stroke-width:1.5;" width="528.5" x="10" y="207.0156"/><text fill="#000000" font-family="sans-serif" font-size="13" font-weight="bold" lengthAdjust="spacing" textLength="16" x="25" y="221.5107">alt</text><text fill="#000000" font-family="sans-serif" font-size="11" font-weight="bold" lengthAdjust="spacing" textLength="72" x="86" y="220.4346">[Th&#224;nh c&#244;ng]</text><polygon fill="#181818" points="281,243.7188,271,247.7188,281,251.7188,277,247.7188" style="stroke:#181818;stroke-width:1.0;"/><line style="stroke:#181818;stroke-width:1.0;" x1="275" x2="485" y1="247.7188" y2="247.7188"/><text fill="#000000" font-family="sans-serif" font-size="13" lengthAdjust="spacing" textLength="125" x="287" y="242.8623">th&#244;ng b&#225;o th&#224;nh c&#244;ng</text><polygon fill="#181818" points="74,274.0703,64,278.0703,74,282.0703,70,278.0703" style="stroke:#181818;stroke-width:1.0;"/><line style="stroke:#181818;stroke-width:1.0;" x1="68" x2="259" y1="278.0703" y2="278.0703"/><text fill="#000000" font-family="sans-serif" font-size="13" lengthAdjust="spacing" textLength="173" x="80" y="273.2139">Hi&#7875;n th&#7883; th&#244;ng b&#225;o th&#224;nh c&#244;ng</text><line style="stroke:#000000;stroke-width:1.0;stroke-dasharray:2.0,2.0;" x1="10" x2="538.5" y1="287.0703" y2="287.0703"/><text fill="#000000" font-family="sans-serif" font-size="11" font-weight="bold" lengthAdjust="spacing" textLength="107" x="15" y="298.4893">[Kh&#244;ng th&#224;nh c&#244;ng]</text><polygon fill="#181818" points="281,320.2578,271,324.2578,281,328.2578,277,324.2578" style="stroke:#181818;stroke-width:1.0;"/><line style="stroke:#181818;stroke-width:1.0;" x1="275" x2="485" y1="324.2578" y2="324.2578"/><text fill="#000000" font-family="sans-serif" font-size="13" lengthAdjust="spacing" textLength="104" x="287" y="319.4014">th&#244;ng b&#225;o th&#7845;t b&#7841;i</text><polygon fill="#181818" points="74,350.6094,64,354.6094,74,358.6094,70,354.6094" style="stroke:#181818;stroke-width:1.0;"/><line style="stroke:#181818;stroke-width:1.0;" x1="68" x2="259" y1="354.6094" y2="354.6094"/><text fill="#000000" font-family="sans-serif" font-size="13" lengthAdjust="spacing" textLength="152" x="80" y="349.7529">Hi&#7875;n th&#7883; th&#244;ng b&#225;o th&#7845;t b&#7841;i</text><!--SRC=[fPA_IiKm58VtFCNl0VG5EhYOGH74GJUNj8rDi6rAUtfnTnJn0Lmgug0WEZYrOy3to9jugd1lBHL4CuNpvplV8J4srJXpZc9t8OHAoDKup5fdPLjceb8rsSHMgYISx4jDokP7jKlRXBxbf28LgqP3DP2V6BjIf2UaTMYE4UiQRE_Cin5sJHYkIvpxvyI0pFjh66wJBHI-Qz64_eNlf-NATxEAtr79-AS2tEsGsJ3SmFYENJUolCkiTyH9HA3GtxdHuBv4PKB_M81gn-Cc81IiOXcN4ux7Y47YttW0-CX5CJRY0iIUuJHlML1PhnbXZmTVZZk5uUfdZixvbGw-ilGNfz0_46BUtlxFQSBHPGeXKhtmRIR1-SUPfAJu0000]--></g></svg>