<?xml version="1.0" encoding="us-ascii" standalone="no"?><svg xmlns="http://www.w3.org/2000/svg" xmlns:xlink="http://www.w3.org/1999/xlink" contentStyleType="text/css" height="304px" preserveAspectRatio="none" style="width:708px;height:304px;background:#FFFFFF;" version="1.1" viewBox="0 0 708 304" width="708px" zoomAndPan="magnify"><defs/><g><rect fill="#FFFFFF" height="39.3516" style="stroke:#181818;stroke-width:1.0;" width="10" x="121.5" y="249.3672"/><rect fill="#FFFFFF" height="52.7031" style="stroke:#181818;stroke-width:1.0;" width="10" x="248" y="92.6094"/><rect fill="#FFFFFF" height="143.4063" style="stroke:#181818;stroke-width:1.0;" width="10" x="403" y="145.3125"/><rect fill="#FFFFFF" height="143.4063" style="stroke:#181818;stroke-width:1.0;" width="10" x="592" y="145.3125"/><line style="stroke:#181818;stroke-width:0.5;stroke-dasharray:5.0,5.0;" x1="43" x2="43" y1="82.6094" y2="297.7188"/><line style="stroke:#181818;stroke-width:0.5;stroke-dasharray:5.0,5.0;" x1="126" x2="126" y1="82.6094" y2="297.7188"/><line style="stroke:#181818;stroke-width:0.5;stroke-dasharray:5.0,5.0;" x1="252.5" x2="252.5" y1="82.6094" y2="297.7188"/><line style="stroke:#181818;stroke-width:0.5;stroke-dasharray:5.0,5.0;" x1="407.5" x2="407.5" y1="82.6094" y2="297.7188"/><line style="stroke:#181818;stroke-width:0.5;stroke-dasharray:5.0,5.0;" x1="596.5" x2="596.5" y1="82.6094" y2="297.7188"/><text fill="#000000" font-family="sans-serif" font-size="14" lengthAdjust="spacing" textLength="70" x="5" y="79.5332">NguoiDung</text><ellipse cx="43" cy="13.5" fill="#E2E2F0" rx="8" ry="8" style="stroke:#181818;stroke-width:0.5;"/><path d="M43,21.5 L43,48.5 M30,29.5 L56,29.5 M43,48.5 L30,63.5 M43,48.5 L56,63.5 " fill="none" style="stroke:#181818;stroke-width:0.5;"/><rect fill="#E2E2F0" height="31.6094" rx="2.5" ry="2.5" style="stroke:#181818;stroke-width:0.5;" width="71" x="91" y="50"/><text fill="#000000" font-family="sans-serif" font-size="14" lengthAdjust="spacing" textLength="57" x="98" y="71.5332">UISearch</text><rect fill="#E2E2F0" height="31.6094" rx="2.5" ry="2.5" style="stroke:#181818;stroke-width:0.5;" width="81" x="212.5" y="50"/><text fill="#000000" font-family="sans-serif" font-size="14" lengthAdjust="spacing" textLength="67" x="219.5" y="71.5332">SearchBar</text><rect fill="#E2E2F0" height="31.6094" rx="2.5" ry="2.5" style="stroke:#181818;stroke-width:0.5;" width="121" x="347.5" y="50"/><text fill="#000000" font-family="sans-serif" font-size="14" lengthAdjust="spacing" textLength="107" x="354.5" y="71.5332">SearchController</text><rect fill="#E2E2F0" height="31.6094" rx="2.5" ry="2.5" style="stroke:#181818;stroke-width:0.5;" width="75" x="559.5" y="50"/><text fill="#000000" font-family="sans-serif" font-size="14" lengthAdjust="spacing" textLength="61" x="566.5" y="71.5332">Database</text><rect fill="#FFFFFF" height="39.3516" style="stroke:#181818;stroke-width:1.0;" width="10" x="121.5" y="249.3672"/><rect fill="#FFFFFF" height="52.7031" style="stroke:#181818;stroke-width:1.0;" width="10" x="248" y="92.6094"/><rect fill="#FFFFFF" height="143.4063" style="stroke:#181818;stroke-width:1.0;" width="10" x="403" y="145.3125"/><rect fill="#FFFFFF" height="143.4063" style="stroke:#181818;stroke-width:1.0;" width="10" x="592" y="145.3125"/><polygon fill="#181818" points="236,110.9609,246,114.9609,236,118.9609,240,114.9609" style="stroke:#181818;stroke-width:1.0;"/><line style="stroke:#181818;stroke-width:1.0;" x1="43" x2="242" y1="114.9609" y2="114.9609"/><text fill="#000000" font-family="sans-serif" font-size="13" lengthAdjust="spacing" textLength="181" x="50" y="110.1045">Nh&#7853;p s&#7843;n ph&#7849;m mu&#7889;n t&#236;m ki&#7871;m</text><polygon fill="#181818" points="391,141.3125,401,145.3125,391,149.3125,395,145.3125" style="stroke:#181818;stroke-width:1.0;"/><line style="stroke:#181818;stroke-width:1.0;" x1="253" x2="397" y1="145.3125" y2="145.3125"/><text fill="#000000" font-family="sans-serif" font-size="13" lengthAdjust="spacing" textLength="126" x="260" y="140.4561">G&#7917;i y&#234;u c&#7847;u t&#236;m ki&#7871;m</text><polygon fill="#181818" points="580,171.6641,590,175.6641,580,179.6641,584,175.6641" style="stroke:#181818;stroke-width:1.0;"/><line style="stroke:#181818;stroke-width:1.0;" x1="413" x2="586" y1="175.6641" y2="175.6641"/><text fill="#000000" font-family="sans-serif" font-size="13" lengthAdjust="spacing" textLength="155" x="420" y="170.8076">T&#236;m ki&#7871;m d&#7921;a tr&#234;n t&#7915; kh&#243;a</text><line style="stroke:#181818;stroke-width:1.0;" x1="602" x2="644" y1="206.0156" y2="206.0156"/><line style="stroke:#181818;stroke-width:1.0;" x1="644" x2="644" y1="206.0156" y2="219.0156"/><line style="stroke:#181818;stroke-width:1.0;" x1="603" x2="644" y1="219.0156" y2="219.0156"/><polygon fill="#181818" points="613,215.0156,603,219.0156,613,223.0156,609,219.0156" style="stroke:#181818;stroke-width:1.0;"/><text fill="#000000" font-family="sans-serif" font-size="13" lengthAdjust="spacing" textLength="92" x="609" y="201.1592">Truy v&#7845;n d&#7919; li&#7879;u</text><polygon fill="#181818" points="424,245.3672,414,249.3672,424,253.3672,420,249.3672" style="stroke:#181818;stroke-width:1.0;"/><line style="stroke:#181818;stroke-width:1.0;" x1="418" x2="591" y1="249.3672" y2="249.3672"/><text fill="#000000" font-family="sans-serif" font-size="13" lengthAdjust="spacing" textLength="147" x="430" y="244.5107">Tr&#7843; v&#7873; danh s&#225;ch truy v&#7845;n</text><polygon fill="#181818" points="142.5,275.7188,132.5,279.7188,142.5,283.7188,138.5,279.7188" style="stroke:#181818;stroke-width:1.0;"/><line style="stroke:#181818;stroke-width:1.0;" x1="136.5" x2="402" y1="279.7188" y2="279.7188"/><text fill="#000000" font-family="sans-serif" font-size="13" lengthAdjust="spacing" textLength="157" x="148.5" y="274.8623">Hi&#7875;n th&#7883; danh d&#225;ch truy v&#7845;n</text><!--SRC=[RP4nJiCm58Ptd-9TW0imC40aOEb2ES1hOcghYHqvTaN7gWC34qT0224A5K9iyS2Ga_WcF8Zg92LZ_l-z__-U0qp8ZCEDrdQcRnd3r6e3axdJCd5gpaeqLgQoH6NX-lAAeqd5G6obKpGZwfbMrkWyvqCpGOiph3XW1SbVfLoYvRqe5W7WwAJJuHWc8jIx4gfGFoaewUErWC85_w30Dky5B6IelmlMhSJz3ePYpeFVILWrMmTfg5_SO9bbV8pfGEiT5nswvbyP0IJKEEqA80l-4y6QPalKmR_1GZHVo98uQzmAbg5-Lh-Z7v3BuEzSwuySCpNq6ZJlrv2X4b0rZwcW-1ZIOu__S1HqxrBe1NLk24y4Vz_6PWUnx0S0]--></g></svg>