<?xml version="1.0" encoding="us-ascii" standalone="no"?><svg xmlns="http://www.w3.org/2000/svg" xmlns:xlink="http://www.w3.org/1999/xlink" contentStyleType="text/css" height="448px" preserveAspectRatio="none" style="width:545px;height:448px;background:#FFFFFF;" version="1.1" viewBox="0 0 545 448" width="545px" zoomAndPan="magnify"><defs/><g><rect fill="#FFFFFF" height="339.1875" style="stroke:#181818;stroke-width:1.0;" width="10" x="63" y="92.6094"/><rect fill="#FFFFFF" height="339.1875" style="stroke:#181818;stroke-width:1.0;" width="10" x="314" y="92.6094"/><rect fill="#FFFFFF" height="286.4844" style="stroke:#181818;stroke-width:1.0;" width="10" x="476" y="145.3125"/><rect fill="none" height="264.4844" style="stroke:#000000;stroke-width:1.5;" width="528.5" x="10" y="160.3125"/><rect fill="none" height="155.5938" style="stroke:#000000;stroke-width:1.5;" width="508.5" x="20" y="216.0156"/><line style="stroke:#181818;stroke-width:0.5;stroke-dasharray:5.0,5.0;" x1="68" x2="68" y1="82.6094" y2="441.7969"/><line style="stroke:#181818;stroke-width:0.5;stroke-dasharray:5.0,5.0;" x1="318.5" x2="318.5" y1="82.6094" y2="441.7969"/><line style="stroke:#181818;stroke-width:0.5;stroke-dasharray:5.0,5.0;" x1="480.5" x2="480.5" y1="82.6094" y2="441.7969"/><text fill="#000000" font-family="sans-serif" font-size="14" lengthAdjust="spacing" textLength="70" x="30" y="79.5332">NguoiDung</text><ellipse cx="68" cy="13.5" fill="#E2E2F0" rx="8" ry="8" style="stroke:#181818;stroke-width:0.5;"/><path d="M68,21.5 L68,48.5 M55,29.5 L81,29.5 M68,48.5 L55,63.5 M68,48.5 L81,63.5 " fill="none" style="stroke:#181818;stroke-width:0.5;"/><rect fill="#E2E2F0" height="31.6094" rx="2.5" ry="2.5" style="stroke:#181818;stroke-width:0.5;" width="69" x="284.5" y="50"/><text fill="#000000" font-family="sans-serif" font-size="14" lengthAdjust="spacing" textLength="55" x="291.5" y="71.5332">GioHang</text><rect fill="#E2E2F0" height="31.6094" rx="2.5" ry="2.5" style="stroke:#181818;stroke-width:0.5;" width="75" x="443.5" y="50"/><text fill="#000000" font-family="sans-serif" font-size="14" lengthAdjust="spacing" textLength="61" x="450.5" y="71.5332">Database</text><rect fill="#FFFFFF" height="339.1875" style="stroke:#181818;stroke-width:1.0;" width="10" x="63" y="92.6094"/><rect fill="#FFFFFF" height="339.1875" style="stroke:#181818;stroke-width:1.0;" width="10" x="314" y="92.6094"/><rect fill="#FFFFFF" height="286.4844" style="stroke:#181818;stroke-width:1.0;" width="10" x="476" y="145.3125"/><polygon fill="#181818" points="302,110.9609,312,114.9609,302,118.9609,306,114.9609" style="stroke:#181818;stroke-width:1.0;"/><line style="stroke:#181818;stroke-width:1.0;" x1="73" x2="308" y1="114.9609" y2="114.9609"/><text fill="#000000" font-family="sans-serif" font-size="13" lengthAdjust="spacing" textLength="217" x="80" y="110.1045">L&#7921;a ch&#7885;n s&#7843;n ph&#7849;m mu&#7889;n thanh to&#225;n</text><polygon fill="#181818" points="302,141.3125,312,145.3125,302,149.3125,306,145.3125" style="stroke:#181818;stroke-width:1.0;"/><line style="stroke:#181818;stroke-width:1.0;" x1="73" x2="308" y1="145.3125" y2="145.3125"/><text fill="#000000" font-family="sans-serif" font-size="13" lengthAdjust="spacing" textLength="114" x="80" y="140.4561">B&#7845;m n&#250;t thanh to&#225;n</text><path d="M10,160.3125 L71,160.3125 L71,168.6641 L61,178.6641 L10,178.6641 L10,160.3125 " fill="#EEEEEE" style="stroke:#000000;stroke-width:1.5;"/><rect fill="none" height="264.4844" style="stroke:#000000;stroke-width:1.5;" width="528.5" x="10" y="160.3125"/><text fill="#000000" font-family="sans-serif" font-size="13" font-weight="bold" lengthAdjust="spacing" textLength="16" x="25" y="174.8076">alt</text><text fill="#000000" font-family="sans-serif" font-size="11" font-weight="bold" lengthAdjust="spacing" textLength="56" x="86" y="173.7314">[x&#225;c nh&#7853;n]</text><polygon fill="#181818" points="464,197.0156,474,201.0156,464,205.0156,468,201.0156" style="stroke:#181818;stroke-width:1.0;"/><line style="stroke:#181818;stroke-width:1.0;" x1="324" x2="470" y1="201.0156" y2="201.0156"/><text fill="#000000" font-family="sans-serif" font-size="13" lengthAdjust="spacing" textLength="73" x="331" y="196.1592">T&#7841;o h&#243;a &#273;&#417;n</text><path d="M20,216.0156 L81,216.0156 L81,224.3672 L71,234.3672 L20,234.3672 L20,216.0156 " fill="#EEEEEE" style="stroke:#000000;stroke-width:1.5;"/><rect fill="none" height="155.5938" style="stroke:#000000;stroke-width:1.5;" width="508.5" x="20" y="216.0156"/><text fill="#000000" font-family="sans-serif" font-size="13" font-weight="bold" lengthAdjust="spacing" textLength="16" x="35" y="230.5107">alt</text><text fill="#000000" font-family="sans-serif" font-size="11" font-weight="bold" lengthAdjust="spacing" textLength="69" x="96" y="229.4346">[th&#224;nh c&#244;ng]</text><polygon fill="#181818" points="335,252.7188,325,256.7188,335,260.7188,331,256.7188" style="stroke:#181818;stroke-width:1.0;"/><line style="stroke:#181818;stroke-width:1.0;" x1="329" x2="475" y1="256.7188" y2="256.7188"/><text fill="#000000" font-family="sans-serif" font-size="13" lengthAdjust="spacing" textLength="128" x="341" y="251.8623">Th&#244;ng b&#225;o th&#224;nh c&#244;ng</text><polygon fill="#181818" points="84,283.0703,74,287.0703,84,291.0703,80,287.0703" style="stroke:#181818;stroke-width:1.0;"/><line style="stroke:#181818;stroke-width:1.0;" x1="78" x2="313" y1="287.0703" y2="287.0703"/><text fill="#000000" font-family="sans-serif" font-size="13" lengthAdjust="spacing" textLength="128" x="90" y="282.2139">Th&#244;ng b&#225;o th&#224;nh c&#244;ng</text><line style="stroke:#000000;stroke-width:1.0;stroke-dasharray:2.0,2.0;" x1="20" x2="528.5" y1="296.0703" y2="296.0703"/><text fill="#000000" font-family="sans-serif" font-size="11" font-weight="bold" lengthAdjust="spacing" textLength="107" x="25" y="307.4893">[kh&#244;ng th&#224;nh c&#244;ng]</text><polygon fill="#181818" points="335,329.2578,325,333.2578,335,337.2578,331,333.2578" style="stroke:#181818;stroke-width:1.0;"/><line style="stroke:#181818;stroke-width:1.0;" x1="329" x2="475" y1="333.2578" y2="333.2578"/><text fill="#000000" font-family="sans-serif" font-size="13" lengthAdjust="spacing" textLength="107" x="341" y="328.4014">Th&#244;ng b&#225;o th&#7845;t b&#7841;i</text><polygon fill="#181818" points="84,359.6094,74,363.6094,84,367.6094,80,363.6094" style="stroke:#181818;stroke-width:1.0;"/><line style="stroke:#181818;stroke-width:1.0;" x1="78" x2="313" y1="363.6094" y2="363.6094"/><text fill="#000000" font-family="sans-serif" font-size="13" lengthAdjust="spacing" textLength="107" x="90" y="358.7529">Th&#244;ng b&#225;o th&#7845;t b&#7841;i</text><line style="stroke:#000000;stroke-width:1.0;stroke-dasharray:2.0,2.0;" x1="10" x2="538.5" y1="379.6094" y2="379.6094"/><text fill="#000000" font-family="sans-serif" font-size="11" font-weight="bold" lengthAdjust="spacing" textLength="28" x="15" y="391.0283">[h&#7911;y]</text><polygon fill="#181818" points="84,412.7969,74,416.7969,84,420.7969,80,416.7969" style="stroke:#181818;stroke-width:1.0;"/><line style="stroke:#181818;stroke-width:1.0;" x1="78" x2="313" y1="416.7969" y2="416.7969"/><text fill="#000000" font-family="sans-serif" font-size="13" lengthAdjust="spacing" textLength="113" x="90" y="411.9404">T&#7855;t dialog x&#225;c nh&#7853;n</text><!--SRC=[bP8nJiCm58Ptd-A_01Vem80imO2OkC1BOcABn8uQfog7OEWDY11230WXc9BHY7lu9ZXf4gLLArHl_lt-p_zxjbI9m9qnDZ9hnYYsPecRj3AALpfb1IsjYbL1sk9IcIlQqpXPYgWKe18SlL-jo8ePOf96FvlES7O-gWjS-_QJ44lVFcgKlddMAAHltdBabMyt6bQIbh36rVe8ui8tBpcqQ-nECQFCOktg63e0tpL3M5Citcy7HeVZME3MDxM1T5-4dyrlFLYoZkkU0ZXstw4J38lFKdHcsPqYSW5ni7vssTJ8FpQHXI7VRojEpn3cOX65djH96VPiGYTWVP3mIAyFx1XcExyFYqHHPjATqGS6Ouauy4zculXJPX9dVm00]--></g></svg>