<?xml version="1.0" encoding="us-ascii" standalone="no"?><svg xmlns="http://www.w3.org/2000/svg" xmlns:xlink="http://www.w3.org/1999/xlink" contentStyleType="text/css" height="386px" preserveAspectRatio="none" style="width:525px;height:386px;background:#FFFFFF;" version="1.1" viewBox="0 0 525 386" width="525px" zoomAndPan="magnify"><defs/><g><rect fill="#FFFFFF" height="277" style="stroke:#181818;stroke-width:1.0;" width="10" x="53" y="92.6094"/><rect fill="#FFFFFF" height="277" style="stroke:#181818;stroke-width:1.0;" width="10" x="286" y="92.6094"/><rect fill="#FFFFFF" height="207.9453" style="stroke:#181818;stroke-width:1.0;" width="10" x="466" y="161.6641"/><rect fill="none" height="155.5938" style="stroke:#000000;stroke-width:1.5;" width="508.5" x="10" y="207.0156"/><line style="stroke:#181818;stroke-width:0.5;stroke-dasharray:5.0,5.0;" x1="58" x2="58" y1="82.6094" y2="379.6094"/><line style="stroke:#181818;stroke-width:0.5;stroke-dasharray:5.0,5.0;" x1="290.5" x2="290.5" y1="82.6094" y2="379.6094"/><line style="stroke:#181818;stroke-width:0.5;stroke-dasharray:5.0,5.0;" x1="470.5" x2="470.5" y1="82.6094" y2="379.6094"/><text fill="#000000" font-family="sans-serif" font-size="14" lengthAdjust="spacing" textLength="70" x="20" y="79.5332">NguoiDung</text><ellipse cx="58" cy="13.5" fill="#E2E2F0" rx="8" ry="8" style="stroke:#181818;stroke-width:0.5;"/><path d="M58,21.5 L58,48.5 M45,29.5 L71,29.5 M58,48.5 L45,63.5 M58,48.5 L71,63.5 " fill="none" style="stroke:#181818;stroke-width:0.5;"/><rect fill="#E2E2F0" height="31.6094" rx="2.5" ry="2.5" style="stroke:#181818;stroke-width:0.5;" width="63" x="259.5" y="50"/><text fill="#000000" font-family="sans-serif" font-size="14" lengthAdjust="spacing" textLength="49" x="266.5" y="71.5332">Product</text><rect fill="#E2E2F0" height="31.6094" rx="2.5" ry="2.5" style="stroke:#181818;stroke-width:0.5;" width="75" x="433.5" y="50"/><text fill="#000000" font-family="sans-serif" font-size="14" lengthAdjust="spacing" textLength="61" x="440.5" y="71.5332">Database</text><rect fill="#FFFFFF" height="277" style="stroke:#181818;stroke-width:1.0;" width="10" x="53" y="92.6094"/><rect fill="#FFFFFF" height="277" style="stroke:#181818;stroke-width:1.0;" width="10" x="286" y="92.6094"/><rect fill="#FFFFFF" height="207.9453" style="stroke:#181818;stroke-width:1.0;" width="10" x="466" y="161.6641"/><polygon fill="#181818" points="274,127.3125,284,131.3125,274,135.3125,278,131.3125" style="stroke:#181818;stroke-width:1.0;"/><line style="stroke:#181818;stroke-width:1.0;" x1="63" x2="280" y1="131.3125" y2="131.3125"/><text fill="#000000" font-family="sans-serif" font-size="13" lengthAdjust="spacing" textLength="195" x="70" y="110.1045">Ch&#7885;n n&#250;t x&#243;a b&#234;n c&#7841;nh s&#7843;n ph&#7849;m</text><text fill="#000000" font-family="sans-serif" font-size="13" lengthAdjust="spacing" textLength="57" x="70" y="126.4561">mu&#7889;n x&#243;a</text><polygon fill="#181818" points="274,157.6641,284,161.6641,274,165.6641,278,161.6641" style="stroke:#181818;stroke-width:1.0;"/><line style="stroke:#181818;stroke-width:1.0;" x1="63" x2="280" y1="161.6641" y2="161.6641"/><text fill="#000000" font-family="sans-serif" font-size="13" lengthAdjust="spacing" textLength="78" x="70" y="156.8076">X&#225;c nh&#7853;n x&#243;a</text><polygon fill="#181818" points="454,188.0156,464,192.0156,454,196.0156,458,192.0156" style="stroke:#181818;stroke-width:1.0;"/><line style="stroke:#181818;stroke-width:1.0;" x1="296" x2="460" y1="192.0156" y2="192.0156"/><text fill="#000000" font-family="sans-serif" font-size="13" lengthAdjust="spacing" textLength="82" x="303" y="187.1592">X&#243;a s&#7843;n ph&#7849;m</text><path d="M10,207.0156 L71,207.0156 L71,215.3672 L61,225.3672 L10,225.3672 L10,207.0156 " fill="#EEEEEE" style="stroke:#000000;stroke-width:1.5;"/><rect fill="none" height="155.5938" style="stroke:#000000;stroke-width:1.5;" width="508.5" x="10" y="207.0156"/><text fill="#000000" font-family="sans-serif" font-size="13" font-weight="bold" lengthAdjust="spacing" textLength="16" x="25" y="221.5107">alt</text><text fill="#000000" font-family="sans-serif" font-size="11" font-weight="bold" lengthAdjust="spacing" textLength="69" x="86" y="220.4346">[th&#224;nh c&#244;ng]</text><polygon fill="#181818" points="307,243.7188,297,247.7188,307,251.7188,303,247.7188" style="stroke:#181818;stroke-width:1.0;"/><line style="stroke:#181818;stroke-width:1.0;" x1="301" x2="465" y1="247.7188" y2="247.7188"/><text fill="#000000" font-family="sans-serif" font-size="13" lengthAdjust="spacing" textLength="146" x="313" y="242.8623">X&#225;c nh&#7853;n x&#243;a th&#224;nh c&#244;ng</text><polygon fill="#181818" points="74,274.0703,64,278.0703,74,282.0703,70,278.0703" style="stroke:#181818;stroke-width:1.0;"/><line style="stroke:#181818;stroke-width:1.0;" x1="68" x2="285" y1="278.0703" y2="278.0703"/><text fill="#000000" font-family="sans-serif" font-size="13" lengthAdjust="spacing" textLength="153" x="80" y="273.2139">Th&#244;ng b&#225;o x&#243;a th&#224;nh c&#244;ng</text><line style="stroke:#000000;stroke-width:1.0;stroke-dasharray:2.0,2.0;" x1="10" x2="518.5" y1="287.0703" y2="287.0703"/><text fill="#000000" font-family="sans-serif" font-size="11" font-weight="bold" lengthAdjust="spacing" textLength="48" x="15" y="298.4893">[th&#7845;t b&#7841;i]</text><polygon fill="#181818" points="307,320.2578,297,324.2578,307,328.2578,303,324.2578" style="stroke:#181818;stroke-width:1.0;"/><line style="stroke:#181818;stroke-width:1.0;" x1="301" x2="465" y1="324.2578" y2="324.2578"/><text fill="#000000" font-family="sans-serif" font-size="13" lengthAdjust="spacing" textLength="125" x="313" y="319.4014">X&#225;c nh&#7853;n x&#243;a th&#7845;t b&#7841;i</text><polygon fill="#181818" points="74,350.6094,64,354.6094,74,358.6094,70,354.6094" style="stroke:#181818;stroke-width:1.0;"/><line style="stroke:#181818;stroke-width:1.0;" x1="68" x2="285" y1="354.6094" y2="354.6094"/><text fill="#000000" font-family="sans-serif" font-size="13" lengthAdjust="spacing" textLength="132" x="80" y="349.7529">Th&#244;ng b&#225;o x&#243;a th&#7845;t b&#7841;i</text><!--SRC=[ZP4nJWCn54Hxds8km0LIqE0QKL1GqDXU4rjAlbUxVr4kaO8Ri48K8551jIbz4jy49s5N3bfGN8xdpNpxErzPF8J0Eco4K8P3W-jb5xpiQ2bgrR0tlbR4k6b2rHa-qQHYfLLheLh80-uV5TiYOP96N4ntkBWSrGMkNDfj2HG7nYP-AkZuJZ1fwCcXJSCBeNPfU5lZdjPTsZtHqVP7t5ti3IW37qTVCPiKFwuz8FVM77FIaCqh1hludBjD_ChP0ld8VojcWA9e6dE1MtTmwDY7ET2kydzopdrbwFn-VsRvR-3iyXAqL0bHsPb55kAuoaAIuXi0]--></g></svg>